Complete name : TROY 2004 Extended Cut BRRip 720p 5.1Ch Hindi Audio-[RedHeart].mkv
Format : Matroska
File size : 1.52 GiB
Duration : 2h 57mn
Overall bit rate : 1 224 Kbps
Movie name : The Dream Team[RedHeart]
Encoded date : UTC 2011-07-09 06:10:32
Writing application : mkvmerge v4.4.0 ('Die Wiederkehr') built on Oct 31 2010 21:52:48
Writing library : libebml v1.0.0 + libmatroska v1.0.0

Video
ID : 1
Format : AVC
Format/Info : Advanced Video Codec
Format profile : High@L3.1
Format settings, CABAC : Yes
Format settings, ReFrames : 4 frames
Muxing mode : Header stripping
Codec ID : V_MPEG4/ISO/AVC
Duration : 2h 57mn
Bit rate : 1 042 Kbps
Width : 1 280 pixels
Height : 528 pixels
Display aspect ratio : 2.40:1
Frame rate : 23.976 fps
Color space : YUV
Chroma subsampling : 4:2:0
Bit depth : 8 bits
Scan type : Progressive
Bits/(Pixel*Frame) : 0.064
Stream size : 1.25 GiB (82%)
Title : RedHeart
Writing library : x264 core 112


Audio
ID : 2
Format : AC-3
Format/Info : Audio Coding 3
Mode extension : CM (complete main)
Muxing mode : Header stripping
Codec ID : A_AC3
Duration : 2h 57mn
Bit rate mode : Constant
Bit rate : 192 Kbps
Channel(s) : 6 channels
Channel positions : Front: L C R, Side: L R, LFE
Sampling rate : 48.0 KHz
Bit depth : 16 bits
Compression mode : Lossy
Stream size : 244 MiB (16%)
Title : RedHeart
Language : Hindi


 
http://img641.imageshack.us/img641/5312/vlcsnap2011071100h34m58.png 
http://img813.imageshack.us/img813/8761/vlcsnap2011071100h25m57.png 
http://img834.imageshack.us/img834/6945/vlcsnap2011071100h25m13.png 
http://img171.imageshack.us/img171/7002/vlcsnap2011071100h22m53.png 
http://img849.imageshack.us/img849/5505/vlcsnap2011071100h20m11.png 
http://img228.imageshack.us/img228/4081/vlcsnap2011071100h15m33.png 
http://img585.imageshack.us/img585/2193/vlcsnap2011071100h15m26.png 
http://img843.imageshack.us/img843/4369/vlcsnap2011071100h14m17.png 
http://img809.imageshack.us/img809/3772/vlcsnap2011071100h13m36.png 
http://img143.imageshack.us/img143/6193/vlcsnap2011071100h08m48.png 
http://img84.imageshack.us/img84/4331/vlcsnap2011071100h05m19.png 
http://img197.imageshack.us/img197/2927/vlcsnap2011071100h05m13.png 
http://img233.imageshack.us/img233/3742/vlcsnap2011071100h04m32.png 
http://img585.imageshack.us/img585/4346/vlcsnap2011071023h58m57.png 
http://img824.imageshack.us/img824/4187/vlcsnap2011071023h56m54.png 
http://img21.imageshack.us/img21/1867/vlcsnap2011070912h22m37.png
